<mxfile host="app.diagrams.net" agent="Mozilla/5.0 (Windows NT 10.0; Win64; x64) AppleWebKit/537.36 (KHTML, like Gecko) Chrome/133.0.0.0 Safari/537.36 Edg/133.0.0.0" version="26.0.14">
  <diagram name="Page-1" id="8wgxy9TzFDl7dWRC7cgr">
    <mxGraphModel dx="2560" dy="1858" grid="1" gridSize="10" guides="1" tooltips="1" connect="1" arrows="1" fold="1" page="1" pageScale="1" pageWidth="850" pageHeight="1100" math="0" shadow="0">
      <root>
        <mxCell id="0" />
        <mxCell id="1" parent="0" />
        <mxCell id="CkMFdOmKAKPlQsbWJ-E4-1" value="&lt;span style=&quot;font-size: 24px;&quot;&gt;Team 5&lt;/span&gt;" style="rounded=0;whiteSpace=wrap;html=1;" parent="1" vertex="1">
          <mxGeometry x="-260" y="-100" width="110" height="40" as="geometry" />
        </mxCell>
        <mxCell id="CkMFdOmKAKPlQsbWJ-E4-3" value="&lt;span style=&quot;font-size: 24px;&quot;&gt;Team 6&lt;/span&gt;" style="rounded=0;whiteSpace=wrap;html=1;" parent="1" vertex="1">
          <mxGeometry x="-260" width="110" height="40" as="geometry" />
        </mxCell>
        <mxCell id="CkMFdOmKAKPlQsbWJ-E4-8" value="" style="endArrow=none;html=1;rounded=0;strokeColor=light-dark(#000099,#FFFFFF);" parent="1" edge="1">
          <mxGeometry width="50" height="50" relative="1" as="geometry">
            <mxPoint x="-150" y="-80" as="sourcePoint" />
            <mxPoint x="-50" y="-40" as="targetPoint" />
            <Array as="points">
              <mxPoint x="-50" y="-80" />
            </Array>
          </mxGeometry>
        </mxCell>
        <mxCell id="CkMFdOmKAKPlQsbWJ-E4-9" value="" style="endArrow=none;html=1;rounded=0;strokeColor=light-dark(#000099,#FFFFFF);" parent="1" edge="1">
          <mxGeometry width="50" height="50" relative="1" as="geometry">
            <mxPoint x="-150" y="20" as="sourcePoint" />
            <mxPoint x="-50" y="-10" as="targetPoint" />
            <Array as="points">
              <mxPoint x="-50" y="20" />
            </Array>
          </mxGeometry>
        </mxCell>
        <mxCell id="CkMFdOmKAKPlQsbWJ-E4-10" value="" style="rounded=0;whiteSpace=wrap;html=1;" parent="1" vertex="1">
          <mxGeometry x="-110" y="-50" width="110" height="40" as="geometry" />
        </mxCell>
        <mxCell id="CkMFdOmKAKPlQsbWJ-E4-11" value="&lt;span style=&quot;font-size: 24px;&quot;&gt;Team 7&lt;/span&gt;" style="rounded=0;whiteSpace=wrap;html=1;" parent="1" vertex="1">
          <mxGeometry x="-260" y="70" width="110" height="40" as="geometry" />
        </mxCell>
        <mxCell id="CkMFdOmKAKPlQsbWJ-E4-12" value="&lt;span style=&quot;font-size: 24px;&quot;&gt;Team 8&lt;/span&gt;" style="rounded=0;whiteSpace=wrap;html=1;" parent="1" vertex="1">
          <mxGeometry x="-260" y="170" width="110" height="40" as="geometry" />
        </mxCell>
        <mxCell id="CkMFdOmKAKPlQsbWJ-E4-13" value="" style="endArrow=none;html=1;rounded=0;strokeColor=light-dark(#000099,#FFFFFF);" parent="1" edge="1">
          <mxGeometry width="50" height="50" relative="1" as="geometry">
            <mxPoint x="-150" y="90" as="sourcePoint" />
            <mxPoint x="-50" y="130" as="targetPoint" />
            <Array as="points">
              <mxPoint x="-50" y="90" />
            </Array>
          </mxGeometry>
        </mxCell>
        <mxCell id="CkMFdOmKAKPlQsbWJ-E4-14" value="" style="endArrow=none;html=1;rounded=0;strokeColor=light-dark(#000099,#FFFFFF);" parent="1" edge="1">
          <mxGeometry width="50" height="50" relative="1" as="geometry">
            <mxPoint x="-150" y="190" as="sourcePoint" />
            <mxPoint x="-50" y="160" as="targetPoint" />
            <Array as="points">
              <mxPoint x="-50" y="190" />
            </Array>
          </mxGeometry>
        </mxCell>
        <mxCell id="CkMFdOmKAKPlQsbWJ-E4-15" value="" style="rounded=0;whiteSpace=wrap;html=1;" parent="1" vertex="1">
          <mxGeometry x="-110" y="120" width="110" height="40" as="geometry" />
        </mxCell>
        <mxCell id="CkMFdOmKAKPlQsbWJ-E4-16" value="&lt;span style=&quot;font-size: 24px;&quot;&gt;Team 9&lt;/span&gt;" style="rounded=0;whiteSpace=wrap;html=1;" parent="1" vertex="1">
          <mxGeometry x="-260" y="240" width="110" height="40" as="geometry" />
        </mxCell>
        <mxCell id="CkMFdOmKAKPlQsbWJ-E4-17" value="&lt;span style=&quot;font-size: 24px;&quot;&gt;Team 10&lt;/span&gt;" style="rounded=0;whiteSpace=wrap;html=1;" parent="1" vertex="1">
          <mxGeometry x="-260" y="340" width="110" height="40" as="geometry" />
        </mxCell>
        <mxCell id="CkMFdOmKAKPlQsbWJ-E4-18" value="" style="endArrow=none;html=1;rounded=0;strokeColor=light-dark(#000099,#FFFFFF);" parent="1" edge="1">
          <mxGeometry width="50" height="50" relative="1" as="geometry">
            <mxPoint x="-150" y="260" as="sourcePoint" />
            <mxPoint x="-50" y="300" as="targetPoint" />
            <Array as="points">
              <mxPoint x="-50" y="260" />
            </Array>
          </mxGeometry>
        </mxCell>
        <mxCell id="CkMFdOmKAKPlQsbWJ-E4-19" value="" style="endArrow=none;html=1;rounded=0;strokeColor=light-dark(#000099,#FFFFFF);" parent="1" edge="1">
          <mxGeometry width="50" height="50" relative="1" as="geometry">
            <mxPoint x="-150" y="360" as="sourcePoint" />
            <mxPoint x="-50" y="330" as="targetPoint" />
            <Array as="points">
              <mxPoint x="-50" y="360" />
            </Array>
          </mxGeometry>
        </mxCell>
        <mxCell id="CkMFdOmKAKPlQsbWJ-E4-20" value="" style="rounded=0;whiteSpace=wrap;html=1;" parent="1" vertex="1">
          <mxGeometry x="-110" y="290" width="110" height="40" as="geometry" />
        </mxCell>
        <mxCell id="CkMFdOmKAKPlQsbWJ-E4-61" value="&lt;span style=&quot;font-size: 24px;&quot;&gt;Team 3&lt;/span&gt;" style="rounded=0;whiteSpace=wrap;html=1;" parent="1" vertex="1">
          <mxGeometry x="-260" y="-270" width="110" height="40" as="geometry" />
        </mxCell>
        <mxCell id="CkMFdOmKAKPlQsbWJ-E4-62" value="&lt;span style=&quot;font-size: 24px;&quot;&gt;Team 4&lt;/span&gt;" style="rounded=0;whiteSpace=wrap;html=1;" parent="1" vertex="1">
          <mxGeometry x="-260" y="-170" width="110" height="40" as="geometry" />
        </mxCell>
        <mxCell id="CkMFdOmKAKPlQsbWJ-E4-63" value="" style="endArrow=none;html=1;rounded=0;strokeColor=light-dark(#000099,#FFFFFF);" parent="1" edge="1">
          <mxGeometry width="50" height="50" relative="1" as="geometry">
            <mxPoint x="-150" y="-250" as="sourcePoint" />
            <mxPoint x="-50" y="-210" as="targetPoint" />
            <Array as="points">
              <mxPoint x="-50" y="-250" />
            </Array>
          </mxGeometry>
        </mxCell>
        <mxCell id="CkMFdOmKAKPlQsbWJ-E4-64" value="" style="endArrow=none;html=1;rounded=0;strokeColor=light-dark(#000099,#FFFFFF);" parent="1" edge="1">
          <mxGeometry width="50" height="50" relative="1" as="geometry">
            <mxPoint x="-150" y="-150" as="sourcePoint" />
            <mxPoint x="-50" y="-180" as="targetPoint" />
            <Array as="points">
              <mxPoint x="-50" y="-150" />
            </Array>
          </mxGeometry>
        </mxCell>
        <mxCell id="CkMFdOmKAKPlQsbWJ-E4-65" value="" style="rounded=0;whiteSpace=wrap;html=1;" parent="1" vertex="1">
          <mxGeometry x="-110" y="-220" width="110" height="40" as="geometry" />
        </mxCell>
        <mxCell id="CkMFdOmKAKPlQsbWJ-E4-66" value="&lt;font style=&quot;font-size: 24px;&quot;&gt;Team 1&lt;/font&gt;" style="rounded=0;whiteSpace=wrap;html=1;" parent="1" vertex="1">
          <mxGeometry x="-260" y="-440" width="110" height="40" as="geometry" />
        </mxCell>
        <mxCell id="CkMFdOmKAKPlQsbWJ-E4-67" value="&lt;span style=&quot;font-size: 24px;&quot;&gt;Team 2&lt;/span&gt;" style="rounded=0;whiteSpace=wrap;html=1;" parent="1" vertex="1">
          <mxGeometry x="-260" y="-340" width="110" height="40" as="geometry" />
        </mxCell>
        <mxCell id="CkMFdOmKAKPlQsbWJ-E4-68" value="" style="endArrow=none;html=1;rounded=0;strokeColor=light-dark(#0000FF,#FFFFFF);" parent="1" edge="1">
          <mxGeometry width="50" height="50" relative="1" as="geometry">
            <mxPoint x="-150" y="-420" as="sourcePoint" />
            <mxPoint x="-50" y="-380" as="targetPoint" />
            <Array as="points">
              <mxPoint x="-50" y="-420" />
            </Array>
          </mxGeometry>
        </mxCell>
        <mxCell id="CkMFdOmKAKPlQsbWJ-E4-69" value="" style="endArrow=none;html=1;rounded=0;strokeColor=light-dark(#0000FF,#FFFFFF);" parent="1" edge="1">
          <mxGeometry width="50" height="50" relative="1" as="geometry">
            <mxPoint x="-150" y="-320" as="sourcePoint" />
            <mxPoint x="-50" y="-350" as="targetPoint" />
            <Array as="points">
              <mxPoint x="-50" y="-320" />
            </Array>
          </mxGeometry>
        </mxCell>
        <mxCell id="CkMFdOmKAKPlQsbWJ-E4-70" value="" style="rounded=0;whiteSpace=wrap;html=1;" parent="1" vertex="1">
          <mxGeometry x="-110" y="-390" width="110" height="40" as="geometry" />
        </mxCell>
        <mxCell id="CkMFdOmKAKPlQsbWJ-E4-131" value="" style="endArrow=none;html=1;rounded=0;entryX=0.5;entryY=0;entryDx=0;entryDy=0;strokeColor=light-dark(#4D9900,#FFFFFF);" parent="1" target="CkMFdOmKAKPlQsbWJ-E4-133" edge="1">
          <mxGeometry width="50" height="50" relative="1" as="geometry">
            <mxPoint y="-370" as="sourcePoint" />
            <mxPoint x="99" y="-305" as="targetPoint" />
            <Array as="points">
              <mxPoint x="95" y="-370" />
            </Array>
          </mxGeometry>
        </mxCell>
        <mxCell id="CkMFdOmKAKPlQsbWJ-E4-133" value="" style="rounded=0;whiteSpace=wrap;html=1;" parent="1" vertex="1">
          <mxGeometry x="40" y="-310" width="110" height="40" as="geometry" />
        </mxCell>
        <mxCell id="CkMFdOmKAKPlQsbWJ-E4-134" value="" style="endArrow=none;html=1;rounded=0;strokeColor=light-dark(#4D9900,#FFFFFF);" parent="1" target="CkMFdOmKAKPlQsbWJ-E4-133" edge="1">
          <mxGeometry width="50" height="50" relative="1" as="geometry">
            <mxPoint y="-200" as="sourcePoint" />
            <mxPoint x="95" y="-140" as="targetPoint" />
            <Array as="points">
              <mxPoint x="95" y="-200" />
            </Array>
          </mxGeometry>
        </mxCell>
        <mxCell id="CkMFdOmKAKPlQsbWJ-E4-136" value="" style="rounded=0;whiteSpace=wrap;html=1;" parent="1" vertex="1">
          <mxGeometry x="40" y="30" width="110" height="40" as="geometry" />
        </mxCell>
        <mxCell id="CkMFdOmKAKPlQsbWJ-E4-137" value="" style="endArrow=none;html=1;rounded=0;entryX=0.5;entryY=0;entryDx=0;entryDy=0;strokeColor=light-dark(#4D9900,#FFFFFF);" parent="1" edge="1">
          <mxGeometry width="50" height="50" relative="1" as="geometry">
            <mxPoint y="-30" as="sourcePoint" />
            <mxPoint x="95" y="30" as="targetPoint" />
            <Array as="points">
              <mxPoint x="95" y="-30" />
            </Array>
          </mxGeometry>
        </mxCell>
        <mxCell id="CkMFdOmKAKPlQsbWJ-E4-138" value="" style="endArrow=none;html=1;rounded=0;strokeColor=light-dark(#4D9900,#FFFFFF);" parent="1" edge="1">
          <mxGeometry width="50" height="50" relative="1" as="geometry">
            <mxPoint y="140" as="sourcePoint" />
            <mxPoint x="95" y="70" as="targetPoint" />
            <Array as="points">
              <mxPoint x="95" y="140" />
            </Array>
          </mxGeometry>
        </mxCell>
        <mxCell id="CkMFdOmKAKPlQsbWJ-E4-151" value="" style="endArrow=none;html=1;rounded=0;entryX=0.5;entryY=0;entryDx=0;entryDy=0;strokeColor=light-dark(#FF0000,#FFFFFF);" parent="1" target="CkMFdOmKAKPlQsbWJ-E4-152" edge="1">
          <mxGeometry width="50" height="50" relative="1" as="geometry">
            <mxPoint x="150" y="-290" as="sourcePoint" />
            <mxPoint x="245" y="-230" as="targetPoint" />
            <Array as="points">
              <mxPoint x="245" y="-290" />
            </Array>
          </mxGeometry>
        </mxCell>
        <mxCell id="CkMFdOmKAKPlQsbWJ-E4-152" value="" style="rounded=0;whiteSpace=wrap;html=1;" parent="1" vertex="1">
          <mxGeometry x="190" y="-160" width="110" height="40" as="geometry" />
        </mxCell>
        <mxCell id="CkMFdOmKAKPlQsbWJ-E4-153" value="" style="endArrow=none;html=1;rounded=0;strokeColor=light-dark(#FF0000,#FFFFFF);entryX=0.5;entryY=1;entryDx=0;entryDy=0;" parent="1" target="CkMFdOmKAKPlQsbWJ-E4-152" edge="1">
          <mxGeometry width="50" height="50" relative="1" as="geometry">
            <mxPoint x="150" y="55" as="sourcePoint" />
            <mxPoint x="245" y="-15" as="targetPoint" />
            <Array as="points">
              <mxPoint x="245" y="55" />
            </Array>
          </mxGeometry>
        </mxCell>
        <mxCell id="CkMFdOmKAKPlQsbWJ-E4-161" value="Thursday" style="text;html=1;align=center;verticalAlign=middle;whiteSpace=wrap;rounded=0;" parent="1" vertex="1">
          <mxGeometry x="-300" y="-385" width="60" height="30" as="geometry" />
        </mxCell>
        <mxCell id="CkMFdOmKAKPlQsbWJ-E4-162" value="Friday" style="text;html=1;align=center;verticalAlign=middle;whiteSpace=wrap;rounded=0;" parent="1" vertex="1">
          <mxGeometry x="-300" y="-215" width="60" height="30" as="geometry" />
        </mxCell>
        <mxCell id="CkMFdOmKAKPlQsbWJ-E4-163" value="3" style="text;html=1;align=center;verticalAlign=middle;whiteSpace=wrap;rounded=0;" parent="1" vertex="1">
          <mxGeometry x="-300" y="-50" width="60" height="30" as="geometry" />
        </mxCell>
        <mxCell id="CkMFdOmKAKPlQsbWJ-E4-164" value="4" style="text;html=1;align=center;verticalAlign=middle;whiteSpace=wrap;rounded=0;" parent="1" vertex="1">
          <mxGeometry x="-300" y="125" width="60" height="30" as="geometry" />
        </mxCell>
        <mxCell id="CkMFdOmKAKPlQsbWJ-E4-165" value="5" style="text;html=1;align=center;verticalAlign=middle;whiteSpace=wrap;rounded=0;" parent="1" vertex="1">
          <mxGeometry x="-300" y="295" width="60" height="30" as="geometry" />
        </mxCell>
        <mxCell id="CkMFdOmKAKPlQsbWJ-E4-260" value="" style="group;rotation=-180;" parent="1" vertex="1" connectable="0">
          <mxGeometry x="460" y="-490" width="560" height="2030" as="geometry" />
        </mxCell>
        <mxCell id="CkMFdOmKAKPlQsbWJ-E4-173" value="" style="rounded=0;whiteSpace=wrap;html=1;direction=west;rotation=-180;" parent="CkMFdOmKAKPlQsbWJ-E4-260" vertex="1">
          <mxGeometry x="450" y="1650" width="110" height="40" as="geometry" />
        </mxCell>
        <mxCell id="CkMFdOmKAKPlQsbWJ-E4-174" value="" style="rounded=0;whiteSpace=wrap;html=1;direction=west;rotation=-180;" parent="CkMFdOmKAKPlQsbWJ-E4-260" vertex="1">
          <mxGeometry x="451" y="1550" width="110" height="40" as="geometry" />
        </mxCell>
        <mxCell id="CkMFdOmKAKPlQsbWJ-E4-175" value="" style="endArrow=none;html=1;rounded=0;strokeColor=light-dark(#000099,#FFFFFF);" parent="CkMFdOmKAKPlQsbWJ-E4-260" edge="1">
          <mxGeometry width="50" height="50" relative="1" as="geometry">
            <mxPoint x="450" y="1670" as="sourcePoint" />
            <mxPoint x="351" y="1630" as="targetPoint" />
            <Array as="points">
              <mxPoint x="350" y="1670" />
            </Array>
          </mxGeometry>
        </mxCell>
        <mxCell id="CkMFdOmKAKPlQsbWJ-E4-176" value="" style="endArrow=none;html=1;rounded=0;strokeColor=light-dark(#000099,#FFFFFF);" parent="CkMFdOmKAKPlQsbWJ-E4-260" edge="1">
          <mxGeometry width="50" height="50" relative="1" as="geometry">
            <mxPoint x="450" y="1570" as="sourcePoint" />
            <mxPoint x="350" y="1600" as="targetPoint" />
            <Array as="points">
              <mxPoint x="350" y="1570" />
            </Array>
          </mxGeometry>
        </mxCell>
        <mxCell id="CkMFdOmKAKPlQsbWJ-E4-177" value="" style="rounded=0;whiteSpace=wrap;html=1;direction=west;rotation=-180;" parent="CkMFdOmKAKPlQsbWJ-E4-260" vertex="1">
          <mxGeometry x="300" y="1600" width="110" height="40" as="geometry" />
        </mxCell>
        <mxCell id="CkMFdOmKAKPlQsbWJ-E4-178" value="" style="rounded=0;whiteSpace=wrap;html=1;direction=west;rotation=-180;" parent="CkMFdOmKAKPlQsbWJ-E4-260" vertex="1">
          <mxGeometry x="450" y="1480" width="110" height="40" as="geometry" />
        </mxCell>
        <mxCell id="CkMFdOmKAKPlQsbWJ-E4-179" value="" style="rounded=0;whiteSpace=wrap;html=1;direction=west;rotation=-180;" parent="CkMFdOmKAKPlQsbWJ-E4-260" vertex="1">
          <mxGeometry x="451" y="1380" width="110" height="40" as="geometry" />
        </mxCell>
        <mxCell id="CkMFdOmKAKPlQsbWJ-E4-180" value="" style="endArrow=none;html=1;rounded=0;strokeColor=light-dark(#000099,#FFFFFF);" parent="CkMFdOmKAKPlQsbWJ-E4-260" edge="1">
          <mxGeometry width="50" height="50" relative="1" as="geometry">
            <mxPoint x="450" y="1499" as="sourcePoint" />
            <mxPoint x="350" y="1460" as="targetPoint" />
            <Array as="points">
              <mxPoint x="350" y="1499" />
            </Array>
          </mxGeometry>
        </mxCell>
        <mxCell id="CkMFdOmKAKPlQsbWJ-E4-181" value="" style="endArrow=none;html=1;rounded=0;strokeColor=light-dark(#000099,#FFFFFF);" parent="CkMFdOmKAKPlQsbWJ-E4-260" edge="1">
          <mxGeometry width="50" height="50" relative="1" as="geometry">
            <mxPoint x="450" y="1400" as="sourcePoint" />
            <mxPoint x="350" y="1430" as="targetPoint" />
            <Array as="points">
              <mxPoint x="350" y="1400" />
            </Array>
          </mxGeometry>
        </mxCell>
        <mxCell id="CkMFdOmKAKPlQsbWJ-E4-182" value="" style="rounded=0;whiteSpace=wrap;html=1;direction=west;rotation=-180;" parent="CkMFdOmKAKPlQsbWJ-E4-260" vertex="1">
          <mxGeometry x="300" y="1431" width="110" height="40" as="geometry" />
        </mxCell>
        <mxCell id="CkMFdOmKAKPlQsbWJ-E4-183" value="" style="rounded=0;whiteSpace=wrap;html=1;direction=west;rotation=-180;" parent="CkMFdOmKAKPlQsbWJ-E4-260" vertex="1">
          <mxGeometry x="450" y="1310" width="110" height="40" as="geometry" />
        </mxCell>
        <mxCell id="CkMFdOmKAKPlQsbWJ-E4-184" value="" style="rounded=0;whiteSpace=wrap;html=1;direction=west;rotation=-180;" parent="CkMFdOmKAKPlQsbWJ-E4-260" vertex="1">
          <mxGeometry x="450" y="1210" width="110" height="40" as="geometry" />
        </mxCell>
        <mxCell id="CkMFdOmKAKPlQsbWJ-E4-185" value="" style="endArrow=none;html=1;rounded=0;strokeColor=light-dark(#000099,#FFFFFF);" parent="CkMFdOmKAKPlQsbWJ-E4-260" edge="1">
          <mxGeometry width="50" height="50" relative="1" as="geometry">
            <mxPoint x="450" y="1330" as="sourcePoint" />
            <mxPoint x="350" y="1290" as="targetPoint" />
            <Array as="points">
              <mxPoint x="350" y="1330" />
            </Array>
          </mxGeometry>
        </mxCell>
        <mxCell id="CkMFdOmKAKPlQsbWJ-E4-186" value="" style="endArrow=none;html=1;rounded=0;strokeColor=light-dark(#000099,#FFFFFF);" parent="CkMFdOmKAKPlQsbWJ-E4-260" edge="1">
          <mxGeometry width="50" height="50" relative="1" as="geometry">
            <mxPoint x="450" y="1231" as="sourcePoint" />
            <mxPoint x="350" y="1260" as="targetPoint" />
            <Array as="points">
              <mxPoint x="350" y="1231" />
            </Array>
          </mxGeometry>
        </mxCell>
        <mxCell id="CkMFdOmKAKPlQsbWJ-E4-187" value="" style="rounded=0;whiteSpace=wrap;html=1;direction=west;rotation=-180;" parent="CkMFdOmKAKPlQsbWJ-E4-260" vertex="1">
          <mxGeometry x="300" y="1261" width="110" height="40" as="geometry" />
        </mxCell>
        <mxCell id="CkMFdOmKAKPlQsbWJ-E4-188" value="" style="rounded=0;whiteSpace=wrap;html=1;direction=west;rotation=-180;" parent="CkMFdOmKAKPlQsbWJ-E4-260" vertex="1">
          <mxGeometry x="450" y="1141" width="110" height="40" as="geometry" />
        </mxCell>
        <mxCell id="CkMFdOmKAKPlQsbWJ-E4-189" value="" style="rounded=0;whiteSpace=wrap;html=1;direction=west;rotation=-180;" parent="CkMFdOmKAKPlQsbWJ-E4-260" vertex="1">
          <mxGeometry x="450" y="1040" width="110" height="40" as="geometry" />
        </mxCell>
        <mxCell id="CkMFdOmKAKPlQsbWJ-E4-190" value="" style="endArrow=none;html=1;rounded=0;strokeColor=light-dark(#000099,#FFFFFF);" parent="CkMFdOmKAKPlQsbWJ-E4-260" edge="1">
          <mxGeometry width="50" height="50" relative="1" as="geometry">
            <mxPoint x="450" y="1160" as="sourcePoint" />
            <mxPoint x="351" y="1120" as="targetPoint" />
            <Array as="points">
              <mxPoint x="350" y="1160" />
            </Array>
          </mxGeometry>
        </mxCell>
        <mxCell id="CkMFdOmKAKPlQsbWJ-E4-191" value="" style="endArrow=none;html=1;rounded=0;strokeColor=light-dark(#000099,#FFFFFF);" parent="CkMFdOmKAKPlQsbWJ-E4-260" edge="1">
          <mxGeometry width="50" height="50" relative="1" as="geometry">
            <mxPoint x="450" y="1060" as="sourcePoint" />
            <mxPoint x="350" y="1089" as="targetPoint" />
            <Array as="points">
              <mxPoint x="350" y="1060" />
            </Array>
          </mxGeometry>
        </mxCell>
        <mxCell id="CkMFdOmKAKPlQsbWJ-E4-192" value="" style="rounded=0;whiteSpace=wrap;html=1;direction=west;rotation=-180;" parent="CkMFdOmKAKPlQsbWJ-E4-260" vertex="1">
          <mxGeometry x="300" y="1090" width="110" height="40" as="geometry" />
        </mxCell>
        <mxCell id="CkMFdOmKAKPlQsbWJ-E4-193" value="" style="rounded=0;whiteSpace=wrap;html=1;direction=west;rotation=-180;" parent="CkMFdOmKAKPlQsbWJ-E4-260" vertex="1">
          <mxGeometry x="450" y="960" width="110" height="40" as="geometry" />
        </mxCell>
        <mxCell id="CkMFdOmKAKPlQsbWJ-E4-194" value="" style="rounded=0;whiteSpace=wrap;html=1;direction=west;rotation=-180;" parent="CkMFdOmKAKPlQsbWJ-E4-260" vertex="1">
          <mxGeometry x="450" y="859" width="110" height="40" as="geometry" />
        </mxCell>
        <mxCell id="CkMFdOmKAKPlQsbWJ-E4-195" value="" style="endArrow=none;html=1;rounded=0;strokeColor=light-dark(#000099,#FFFFFF);" parent="CkMFdOmKAKPlQsbWJ-E4-260" edge="1">
          <mxGeometry width="50" height="50" relative="1" as="geometry">
            <mxPoint x="450" y="980" as="sourcePoint" />
            <mxPoint x="350" y="939" as="targetPoint" />
            <Array as="points">
              <mxPoint x="351" y="980" />
            </Array>
          </mxGeometry>
        </mxCell>
        <mxCell id="CkMFdOmKAKPlQsbWJ-E4-196" value="" style="endArrow=none;html=1;rounded=0;strokeColor=light-dark(#000099,#FFFFFF);" parent="CkMFdOmKAKPlQsbWJ-E4-260" edge="1">
          <mxGeometry width="50" height="50" relative="1" as="geometry">
            <mxPoint x="450" y="881" as="sourcePoint" />
            <mxPoint x="350" y="910" as="targetPoint" />
            <Array as="points">
              <mxPoint x="351" y="879" />
            </Array>
          </mxGeometry>
        </mxCell>
        <mxCell id="CkMFdOmKAKPlQsbWJ-E4-197" value="" style="rounded=0;whiteSpace=wrap;html=1;direction=west;rotation=-180;" parent="CkMFdOmKAKPlQsbWJ-E4-260" vertex="1">
          <mxGeometry x="299" y="909" width="110" height="40" as="geometry" />
        </mxCell>
        <mxCell id="CkMFdOmKAKPlQsbWJ-E4-198" value="" style="rounded=0;whiteSpace=wrap;html=1;direction=west;rotation=-180;" parent="CkMFdOmKAKPlQsbWJ-E4-260" vertex="1">
          <mxGeometry x="450" y="790" width="110" height="40" as="geometry" />
        </mxCell>
        <mxCell id="CkMFdOmKAKPlQsbWJ-E4-199" value="" style="rounded=0;whiteSpace=wrap;html=1;direction=west;rotation=-180;" parent="CkMFdOmKAKPlQsbWJ-E4-260" vertex="1">
          <mxGeometry x="450" y="690" width="110" height="40" as="geometry" />
        </mxCell>
        <mxCell id="CkMFdOmKAKPlQsbWJ-E4-200" value="" style="endArrow=none;html=1;rounded=0;strokeColor=light-dark(#000099,#FFFFFF);" parent="CkMFdOmKAKPlQsbWJ-E4-260" edge="1">
          <mxGeometry width="50" height="50" relative="1" as="geometry">
            <mxPoint x="450" y="810" as="sourcePoint" />
            <mxPoint x="350" y="770" as="targetPoint" />
            <Array as="points">
              <mxPoint x="351" y="810" />
            </Array>
          </mxGeometry>
        </mxCell>
        <mxCell id="CkMFdOmKAKPlQsbWJ-E4-201" value="" style="endArrow=none;html=1;rounded=0;strokeColor=light-dark(#000099,#FFFFFF);" parent="CkMFdOmKAKPlQsbWJ-E4-260" edge="1">
          <mxGeometry width="50" height="50" relative="1" as="geometry">
            <mxPoint x="450" y="710" as="sourcePoint" />
            <mxPoint x="350" y="740" as="targetPoint" />
            <Array as="points">
              <mxPoint x="351" y="710" />
            </Array>
          </mxGeometry>
        </mxCell>
        <mxCell id="CkMFdOmKAKPlQsbWJ-E4-202" value="" style="rounded=0;whiteSpace=wrap;html=1;direction=west;rotation=-180;" parent="CkMFdOmKAKPlQsbWJ-E4-260" vertex="1">
          <mxGeometry x="299" y="740" width="110" height="40" as="geometry" />
        </mxCell>
        <mxCell id="CkMFdOmKAKPlQsbWJ-E4-203" value="" style="rounded=0;whiteSpace=wrap;html=1;direction=west;rotation=-180;" parent="CkMFdOmKAKPlQsbWJ-E4-260" vertex="1">
          <mxGeometry x="450" y="610" width="110" height="40" as="geometry" />
        </mxCell>
        <mxCell id="CkMFdOmKAKPlQsbWJ-E4-204" value="" style="rounded=0;whiteSpace=wrap;html=1;direction=west;rotation=-180;" parent="CkMFdOmKAKPlQsbWJ-E4-260" vertex="1">
          <mxGeometry x="450" y="510" width="110" height="40" as="geometry" />
        </mxCell>
        <mxCell id="CkMFdOmKAKPlQsbWJ-E4-205" value="" style="endArrow=none;html=1;rounded=0;strokeColor=light-dark(#000099,#FFFFFF);" parent="CkMFdOmKAKPlQsbWJ-E4-260" edge="1">
          <mxGeometry width="50" height="50" relative="1" as="geometry">
            <mxPoint x="450" y="630" as="sourcePoint" />
            <mxPoint x="351" y="589" as="targetPoint" />
            <Array as="points">
              <mxPoint x="350" y="630" />
            </Array>
          </mxGeometry>
        </mxCell>
        <mxCell id="CkMFdOmKAKPlQsbWJ-E4-206" value="" style="endArrow=none;html=1;rounded=0;strokeColor=light-dark(#000099,#FFFFFF);" parent="CkMFdOmKAKPlQsbWJ-E4-260" edge="1">
          <mxGeometry width="50" height="50" relative="1" as="geometry">
            <mxPoint x="450" y="531" as="sourcePoint" />
            <mxPoint x="351" y="560" as="targetPoint" />
            <Array as="points">
              <mxPoint x="350" y="529" />
            </Array>
          </mxGeometry>
        </mxCell>
        <mxCell id="CkMFdOmKAKPlQsbWJ-E4-207" value="" style="rounded=0;whiteSpace=wrap;html=1;direction=west;rotation=-180;" parent="CkMFdOmKAKPlQsbWJ-E4-260" vertex="1">
          <mxGeometry x="300" y="559" width="110" height="40" as="geometry" />
        </mxCell>
        <mxCell id="CkMFdOmKAKPlQsbWJ-E4-208" value="" style="rounded=0;whiteSpace=wrap;html=1;direction=west;rotation=-180;" parent="CkMFdOmKAKPlQsbWJ-E4-260" vertex="1">
          <mxGeometry x="450" y="441" width="110" height="40" as="geometry" />
        </mxCell>
        <mxCell id="CkMFdOmKAKPlQsbWJ-E4-209" value="" style="rounded=0;whiteSpace=wrap;html=1;direction=west;rotation=-180;" parent="CkMFdOmKAKPlQsbWJ-E4-260" vertex="1">
          <mxGeometry x="450" y="340" width="110" height="40" as="geometry" />
        </mxCell>
        <mxCell id="CkMFdOmKAKPlQsbWJ-E4-210" value="" style="endArrow=none;html=1;rounded=0;strokeColor=light-dark(#000099,#FFFFFF);" parent="CkMFdOmKAKPlQsbWJ-E4-260" edge="1">
          <mxGeometry width="50" height="50" relative="1" as="geometry">
            <mxPoint x="450" y="460" as="sourcePoint" />
            <mxPoint x="351" y="420" as="targetPoint" />
            <Array as="points">
              <mxPoint x="350" y="460" />
            </Array>
          </mxGeometry>
        </mxCell>
        <mxCell id="CkMFdOmKAKPlQsbWJ-E4-211" value="" style="endArrow=none;html=1;rounded=0;strokeColor=light-dark(#000099,#FFFFFF);" parent="CkMFdOmKAKPlQsbWJ-E4-260" edge="1">
          <mxGeometry width="50" height="50" relative="1" as="geometry">
            <mxPoint x="450" y="360" as="sourcePoint" />
            <mxPoint x="351" y="390" as="targetPoint" />
            <Array as="points">
              <mxPoint x="350" y="360" />
            </Array>
          </mxGeometry>
        </mxCell>
        <mxCell id="CkMFdOmKAKPlQsbWJ-E4-212" value="" style="rounded=0;whiteSpace=wrap;html=1;direction=west;rotation=-180;" parent="CkMFdOmKAKPlQsbWJ-E4-260" vertex="1">
          <mxGeometry x="300" y="390" width="110" height="40" as="geometry" />
        </mxCell>
        <mxCell id="CkMFdOmKAKPlQsbWJ-E4-213" value="" style="rounded=0;whiteSpace=wrap;html=1;direction=west;rotation=-180;" parent="CkMFdOmKAKPlQsbWJ-E4-260" vertex="1">
          <mxGeometry x="450" y="270" width="110" height="40" as="geometry" />
        </mxCell>
        <mxCell id="CkMFdOmKAKPlQsbWJ-E4-214" value="" style="rounded=0;whiteSpace=wrap;html=1;direction=west;rotation=-180;" parent="CkMFdOmKAKPlQsbWJ-E4-260" vertex="1">
          <mxGeometry x="450" y="171" width="110" height="40" as="geometry" />
        </mxCell>
        <mxCell id="CkMFdOmKAKPlQsbWJ-E4-215" value="" style="endArrow=none;html=1;rounded=0;strokeColor=light-dark(#000099,#FFFFFF);" parent="CkMFdOmKAKPlQsbWJ-E4-260" edge="1">
          <mxGeometry width="50" height="50" relative="1" as="geometry">
            <mxPoint x="450" y="290" as="sourcePoint" />
            <mxPoint x="351" y="250" as="targetPoint" />
            <Array as="points">
              <mxPoint x="350" y="290" />
            </Array>
          </mxGeometry>
        </mxCell>
        <mxCell id="CkMFdOmKAKPlQsbWJ-E4-216" value="" style="endArrow=none;html=1;rounded=0;strokeColor=light-dark(#000099,#FFFFFF);" parent="CkMFdOmKAKPlQsbWJ-E4-260" edge="1">
          <mxGeometry width="50" height="50" relative="1" as="geometry">
            <mxPoint x="450" y="190" as="sourcePoint" />
            <mxPoint x="350" y="220" as="targetPoint" />
            <Array as="points">
              <mxPoint x="350" y="190" />
            </Array>
          </mxGeometry>
        </mxCell>
        <mxCell id="CkMFdOmKAKPlQsbWJ-E4-217" value="" style="rounded=0;whiteSpace=wrap;html=1;direction=west;rotation=-180;" parent="CkMFdOmKAKPlQsbWJ-E4-260" vertex="1">
          <mxGeometry x="300" y="220" width="110" height="40" as="geometry" />
        </mxCell>
        <mxCell id="CkMFdOmKAKPlQsbWJ-E4-218" value="" style="rounded=0;whiteSpace=wrap;html=1;direction=west;rotation=-180;" parent="CkMFdOmKAKPlQsbWJ-E4-260" vertex="1">
          <mxGeometry x="450" y="100" width="110" height="40" as="geometry" />
        </mxCell>
        <mxCell id="CkMFdOmKAKPlQsbWJ-E4-219" value="" style="rounded=0;whiteSpace=wrap;html=1;direction=west;rotation=-180;" parent="CkMFdOmKAKPlQsbWJ-E4-260" vertex="1">
          <mxGeometry x="450" y="1" width="110" height="40" as="geometry" />
        </mxCell>
        <mxCell id="CkMFdOmKAKPlQsbWJ-E4-220" value="" style="endArrow=none;html=1;rounded=0;strokeColor=light-dark(#000099,#FFFFFF);" parent="CkMFdOmKAKPlQsbWJ-E4-260" edge="1">
          <mxGeometry width="50" height="50" relative="1" as="geometry">
            <mxPoint x="450" y="119" as="sourcePoint" />
            <mxPoint x="351" y="80" as="targetPoint" />
            <Array as="points">
              <mxPoint x="350" y="119" />
            </Array>
          </mxGeometry>
        </mxCell>
        <mxCell id="CkMFdOmKAKPlQsbWJ-E4-221" value="" style="endArrow=none;html=1;rounded=0;strokeColor=light-dark(#000099,#FFFFFF);" parent="CkMFdOmKAKPlQsbWJ-E4-260" edge="1">
          <mxGeometry width="50" height="50" relative="1" as="geometry">
            <mxPoint x="450" y="20" as="sourcePoint" />
            <mxPoint x="350" y="50" as="targetPoint" />
            <Array as="points">
              <mxPoint x="350" y="20" />
            </Array>
          </mxGeometry>
        </mxCell>
        <mxCell id="CkMFdOmKAKPlQsbWJ-E4-222" value="" style="rounded=0;whiteSpace=wrap;html=1;direction=west;rotation=-180;" parent="CkMFdOmKAKPlQsbWJ-E4-260" vertex="1">
          <mxGeometry x="300" y="50" width="110" height="40" as="geometry" />
        </mxCell>
        <mxCell id="CkMFdOmKAKPlQsbWJ-E4-223" value="" style="rounded=0;whiteSpace=wrap;html=1;direction=west;rotation=-180;" parent="CkMFdOmKAKPlQsbWJ-E4-260" vertex="1">
          <mxGeometry x="451" y="1820" width="110" height="40" as="geometry" />
        </mxCell>
        <mxCell id="CkMFdOmKAKPlQsbWJ-E4-224" value="" style="rounded=0;whiteSpace=wrap;html=1;direction=west;rotation=-180;" parent="CkMFdOmKAKPlQsbWJ-E4-260" vertex="1">
          <mxGeometry x="451" y="1720" width="110" height="40" as="geometry" />
        </mxCell>
        <mxCell id="CkMFdOmKAKPlQsbWJ-E4-225" value="" style="endArrow=none;html=1;rounded=0;strokeColor=light-dark(#000099,#FFFFFF);" parent="CkMFdOmKAKPlQsbWJ-E4-260" edge="1">
          <mxGeometry width="50" height="50" relative="1" as="geometry">
            <mxPoint x="450" y="1840" as="sourcePoint" />
            <mxPoint x="351" y="1800" as="targetPoint" />
            <Array as="points">
              <mxPoint x="350" y="1840" />
            </Array>
          </mxGeometry>
        </mxCell>
        <mxCell id="CkMFdOmKAKPlQsbWJ-E4-226" value="" style="endArrow=none;html=1;rounded=0;strokeColor=light-dark(#000099,#FFFFFF);" parent="CkMFdOmKAKPlQsbWJ-E4-260" edge="1">
          <mxGeometry width="50" height="50" relative="1" as="geometry">
            <mxPoint x="450" y="1740" as="sourcePoint" />
            <mxPoint x="350" y="1769" as="targetPoint" />
            <Array as="points">
              <mxPoint x="350" y="1740" />
            </Array>
          </mxGeometry>
        </mxCell>
        <mxCell id="CkMFdOmKAKPlQsbWJ-E4-227" value="" style="rounded=0;whiteSpace=wrap;html=1;direction=west;rotation=-180;" parent="CkMFdOmKAKPlQsbWJ-E4-260" vertex="1">
          <mxGeometry x="300" y="1770" width="110" height="40" as="geometry" />
        </mxCell>
        <mxCell id="CkMFdOmKAKPlQsbWJ-E4-228" value="" style="rounded=0;whiteSpace=wrap;html=1;direction=west;rotation=-180;" parent="CkMFdOmKAKPlQsbWJ-E4-260" vertex="1">
          <mxGeometry x="450" y="1991" width="110" height="40" as="geometry" />
        </mxCell>
        <mxCell id="CkMFdOmKAKPlQsbWJ-E4-229" value="" style="rounded=0;whiteSpace=wrap;html=1;direction=west;rotation=-180;" parent="CkMFdOmKAKPlQsbWJ-E4-260" vertex="1">
          <mxGeometry x="450" y="1890" width="110" height="40" as="geometry" />
        </mxCell>
        <mxCell id="CkMFdOmKAKPlQsbWJ-E4-230" value="" style="endArrow=none;html=1;rounded=0;strokeColor=light-dark(#0000FF,#FFFFFF);" parent="CkMFdOmKAKPlQsbWJ-E4-260" edge="1">
          <mxGeometry width="50" height="50" relative="1" as="geometry">
            <mxPoint x="450" y="2010" as="sourcePoint" />
            <mxPoint x="351" y="1970" as="targetPoint" />
            <Array as="points">
              <mxPoint x="350" y="2010" />
            </Array>
          </mxGeometry>
        </mxCell>
        <mxCell id="CkMFdOmKAKPlQsbWJ-E4-231" value="" style="endArrow=none;html=1;rounded=0;strokeColor=light-dark(#0000FF,#FFFFFF);" parent="CkMFdOmKAKPlQsbWJ-E4-260" edge="1">
          <mxGeometry width="50" height="50" relative="1" as="geometry">
            <mxPoint x="450" y="1910" as="sourcePoint" />
            <mxPoint x="350" y="1939" as="targetPoint" />
            <Array as="points">
              <mxPoint x="350" y="1909" />
            </Array>
          </mxGeometry>
        </mxCell>
        <mxCell id="CkMFdOmKAKPlQsbWJ-E4-232" value="" style="rounded=0;whiteSpace=wrap;html=1;direction=west;rotation=-180;" parent="CkMFdOmKAKPlQsbWJ-E4-260" vertex="1">
          <mxGeometry x="300" y="1940" width="110" height="40" as="geometry" />
        </mxCell>
        <mxCell id="CkMFdOmKAKPlQsbWJ-E4-233" value="" style="endArrow=none;html=1;rounded=0;entryX=0.5;entryY=0;entryDx=0;entryDy=0;strokeColor=light-dark(#4D9900,#FFFFFF);exitX=0.5;exitY=0;exitDx=0;exitDy=0;" parent="CkMFdOmKAKPlQsbWJ-E4-260" target="CkMFdOmKAKPlQsbWJ-E4-234" edge="1">
          <mxGeometry width="50" height="50" relative="1" as="geometry">
            <mxPoint x="301" y="1960" as="sourcePoint" />
            <mxPoint x="201" y="1895" as="targetPoint" />
            <Array as="points">
              <mxPoint x="205" y="1960" />
            </Array>
          </mxGeometry>
        </mxCell>
        <mxCell id="CkMFdOmKAKPlQsbWJ-E4-234" value="" style="rounded=0;whiteSpace=wrap;html=1;direction=west;rotation=-180;" parent="CkMFdOmKAKPlQsbWJ-E4-260" vertex="1">
          <mxGeometry x="149" y="1860" width="110" height="40" as="geometry" />
        </mxCell>
        <mxCell id="CkMFdOmKAKPlQsbWJ-E4-235" value="" style="endArrow=none;html=1;rounded=0;strokeColor=light-dark(#4D9900,#FFFFFF);" parent="CkMFdOmKAKPlQsbWJ-E4-260" target="CkMFdOmKAKPlQsbWJ-E4-234" edge="1">
          <mxGeometry width="50" height="50" relative="1" as="geometry">
            <mxPoint x="301" y="1789" as="sourcePoint" />
            <mxPoint x="206" y="1730" as="targetPoint" />
            <Array as="points">
              <mxPoint x="205" y="1790" />
            </Array>
          </mxGeometry>
        </mxCell>
        <mxCell id="CkMFdOmKAKPlQsbWJ-E4-236" value="" style="rounded=0;whiteSpace=wrap;html=1;direction=west;rotation=-180;" parent="CkMFdOmKAKPlQsbWJ-E4-260" vertex="1">
          <mxGeometry x="149" y="1520" width="110" height="40" as="geometry" />
        </mxCell>
        <mxCell id="CkMFdOmKAKPlQsbWJ-E4-237" value="" style="endArrow=none;html=1;rounded=0;entryX=0.5;entryY=0;entryDx=0;entryDy=0;strokeColor=light-dark(#4D9900,#FFFFFF);" parent="CkMFdOmKAKPlQsbWJ-E4-260" edge="1">
          <mxGeometry width="50" height="50" relative="1" as="geometry">
            <mxPoint x="301" y="1620" as="sourcePoint" />
            <mxPoint x="206" y="1560" as="targetPoint" />
            <Array as="points">
              <mxPoint x="205" y="1620" />
            </Array>
          </mxGeometry>
        </mxCell>
        <mxCell id="CkMFdOmKAKPlQsbWJ-E4-238" value="" style="endArrow=none;html=1;rounded=0;strokeColor=light-dark(#4D9900,#FFFFFF);" parent="CkMFdOmKAKPlQsbWJ-E4-260" edge="1">
          <mxGeometry width="50" height="50" relative="1" as="geometry">
            <mxPoint x="301" y="1450" as="sourcePoint" />
            <mxPoint x="205" y="1520" as="targetPoint" />
            <Array as="points">
              <mxPoint x="205" y="1451" />
            </Array>
          </mxGeometry>
        </mxCell>
        <mxCell id="CkMFdOmKAKPlQsbWJ-E4-239" value="" style="endArrow=none;html=1;rounded=0;entryX=0.5;entryY=0;entryDx=0;entryDy=0;strokeColor=light-dark(#4D9900,#FFFFFF);exitX=0.5;exitY=0;exitDx=0;exitDy=0;" parent="CkMFdOmKAKPlQsbWJ-E4-260" target="CkMFdOmKAKPlQsbWJ-E4-240" edge="1">
          <mxGeometry width="50" height="50" relative="1" as="geometry">
            <mxPoint x="301" y="1280" as="sourcePoint" />
            <mxPoint x="200" y="1215" as="targetPoint" />
            <Array as="points">
              <mxPoint x="205" y="1279" />
            </Array>
          </mxGeometry>
        </mxCell>
        <mxCell id="CkMFdOmKAKPlQsbWJ-E4-240" value="" style="rounded=0;whiteSpace=wrap;html=1;direction=west;rotation=-180;" parent="CkMFdOmKAKPlQsbWJ-E4-260" vertex="1">
          <mxGeometry x="149" y="1180" width="110" height="40" as="geometry" />
        </mxCell>
        <mxCell id="CkMFdOmKAKPlQsbWJ-E4-241" value="" style="endArrow=none;html=1;rounded=0;strokeColor=light-dark(#4D9900,#FFFFFF);" parent="CkMFdOmKAKPlQsbWJ-E4-260" target="CkMFdOmKAKPlQsbWJ-E4-240" edge="1">
          <mxGeometry width="50" height="50" relative="1" as="geometry">
            <mxPoint x="301" y="1110" as="sourcePoint" />
            <mxPoint x="206" y="1050" as="targetPoint" />
            <Array as="points">
              <mxPoint x="205" y="1110" />
            </Array>
          </mxGeometry>
        </mxCell>
        <mxCell id="CkMFdOmKAKPlQsbWJ-E4-242" value="" style="endArrow=none;html=1;rounded=0;entryX=0.5;entryY=0;entryDx=0;entryDy=0;strokeColor=light-dark(#4D9900,#FFFFFF);exitX=0.5;exitY=0;exitDx=0;exitDy=0;" parent="CkMFdOmKAKPlQsbWJ-E4-260" target="CkMFdOmKAKPlQsbWJ-E4-243" edge="1">
          <mxGeometry width="50" height="50" relative="1" as="geometry">
            <mxPoint x="300" y="930" as="sourcePoint" />
            <mxPoint x="201" y="865" as="targetPoint" />
            <Array as="points">
              <mxPoint x="206" y="929" />
            </Array>
          </mxGeometry>
        </mxCell>
        <mxCell id="CkMFdOmKAKPlQsbWJ-E4-243" value="" style="rounded=0;whiteSpace=wrap;html=1;direction=west;rotation=-180;" parent="CkMFdOmKAKPlQsbWJ-E4-260" vertex="1">
          <mxGeometry x="150" y="830" width="110" height="40" as="geometry" />
        </mxCell>
        <mxCell id="CkMFdOmKAKPlQsbWJ-E4-244" value="" style="endArrow=none;html=1;rounded=0;strokeColor=light-dark(#4D9900,#FFFFFF);" parent="CkMFdOmKAKPlQsbWJ-E4-260" target="CkMFdOmKAKPlQsbWJ-E4-243" edge="1">
          <mxGeometry width="50" height="50" relative="1" as="geometry">
            <mxPoint x="300" y="760" as="sourcePoint" />
            <mxPoint x="205" y="700" as="targetPoint" />
            <Array as="points">
              <mxPoint x="206" y="760" />
            </Array>
          </mxGeometry>
        </mxCell>
        <mxCell id="CkMFdOmKAKPlQsbWJ-E4-245" value="" style="endArrow=none;html=1;rounded=0;entryX=0.5;entryY=0;entryDx=0;entryDy=0;strokeColor=light-dark(#4D9900,#FFFFFF);exitX=0.5;exitY=0;exitDx=0;exitDy=0;" parent="CkMFdOmKAKPlQsbWJ-E4-260" target="CkMFdOmKAKPlQsbWJ-E4-246" edge="1">
          <mxGeometry width="50" height="50" relative="1" as="geometry">
            <mxPoint x="301" y="580" as="sourcePoint" />
            <mxPoint x="201" y="514" as="targetPoint" />
            <Array as="points">
              <mxPoint x="205" y="579" />
            </Array>
          </mxGeometry>
        </mxCell>
        <mxCell id="CkMFdOmKAKPlQsbWJ-E4-246" value="" style="rounded=0;whiteSpace=wrap;html=1;direction=west;rotation=-180;" parent="CkMFdOmKAKPlQsbWJ-E4-260" vertex="1">
          <mxGeometry x="150" y="480" width="110" height="40" as="geometry" />
        </mxCell>
        <mxCell id="CkMFdOmKAKPlQsbWJ-E4-247" value="" style="endArrow=none;html=1;rounded=0;strokeColor=light-dark(#4D9900,#FFFFFF);" parent="CkMFdOmKAKPlQsbWJ-E4-260" target="CkMFdOmKAKPlQsbWJ-E4-246" edge="1">
          <mxGeometry width="50" height="50" relative="1" as="geometry">
            <mxPoint x="300" y="410" as="sourcePoint" />
            <mxPoint x="204" y="350" as="targetPoint" />
            <Array as="points">
              <mxPoint x="205" y="410" />
            </Array>
          </mxGeometry>
        </mxCell>
        <mxCell id="CkMFdOmKAKPlQsbWJ-E4-248" value="" style="endArrow=none;html=1;rounded=0;entryX=0.5;entryY=0;entryDx=0;entryDy=0;strokeColor=light-dark(#4D9900,#FFFFFF);exitX=0.5;exitY=0;exitDx=0;exitDy=0;" parent="CkMFdOmKAKPlQsbWJ-E4-260" target="CkMFdOmKAKPlQsbWJ-E4-249" edge="1">
          <mxGeometry width="50" height="50" relative="1" as="geometry">
            <mxPoint x="300" y="240" as="sourcePoint" />
            <mxPoint x="201" y="175" as="targetPoint" />
            <Array as="points">
              <mxPoint x="205" y="240" />
            </Array>
          </mxGeometry>
        </mxCell>
        <mxCell id="CkMFdOmKAKPlQsbWJ-E4-249" value="" style="rounded=0;whiteSpace=wrap;html=1;direction=west;rotation=-180;" parent="CkMFdOmKAKPlQsbWJ-E4-260" vertex="1">
          <mxGeometry x="149" y="140" width="110" height="40" as="geometry" />
        </mxCell>
        <mxCell id="CkMFdOmKAKPlQsbWJ-E4-250" value="" style="endArrow=none;html=1;rounded=0;strokeColor=light-dark(#4D9900,#FFFFFF);" parent="CkMFdOmKAKPlQsbWJ-E4-260" target="CkMFdOmKAKPlQsbWJ-E4-249" edge="1">
          <mxGeometry width="50" height="50" relative="1" as="geometry">
            <mxPoint x="301" y="70" as="sourcePoint" />
            <mxPoint x="204" y="10" as="targetPoint" />
            <Array as="points">
              <mxPoint x="205" y="70" />
            </Array>
          </mxGeometry>
        </mxCell>
        <mxCell id="CkMFdOmKAKPlQsbWJ-E4-251" value="" style="endArrow=none;html=1;rounded=0;entryX=0.5;entryY=0;entryDx=0;entryDy=0;strokeColor=light-dark(#FF0000,#FFFFFF);exitX=0.5;exitY=0;exitDx=0;exitDy=0;" parent="CkMFdOmKAKPlQsbWJ-E4-260" target="CkMFdOmKAKPlQsbWJ-E4-252" edge="1">
          <mxGeometry width="50" height="50" relative="1" as="geometry">
            <mxPoint x="149" y="1880" as="sourcePoint" />
            <mxPoint x="55" y="1820" as="targetPoint" />
            <Array as="points">
              <mxPoint x="55" y="1880" />
            </Array>
          </mxGeometry>
        </mxCell>
        <mxCell id="CkMFdOmKAKPlQsbWJ-E4-252" value="" style="rounded=0;whiteSpace=wrap;html=1;direction=west;rotation=-180;" parent="CkMFdOmKAKPlQsbWJ-E4-260" vertex="1">
          <mxGeometry y="1711" width="110" height="40" as="geometry" />
        </mxCell>
        <mxCell id="CkMFdOmKAKPlQsbWJ-E4-253" value="" style="endArrow=none;html=1;rounded=0;strokeColor=light-dark(#FF0000,#FFFFFF);exitX=0.5;exitY=1;exitDx=0;exitDy=0;" parent="CkMFdOmKAKPlQsbWJ-E4-260" edge="1">
          <mxGeometry width="50" height="50" relative="1" as="geometry">
            <mxPoint x="150" y="1535" as="sourcePoint" />
            <mxPoint x="55" y="1710" as="targetPoint" />
            <Array as="points">
              <mxPoint x="55" y="1535" />
            </Array>
          </mxGeometry>
        </mxCell>
        <mxCell id="CkMFdOmKAKPlQsbWJ-E4-254" value="" style="endArrow=none;html=1;rounded=0;entryX=0.5;entryY=0;entryDx=0;entryDy=0;strokeColor=light-dark(#FF0000,#FFFFFF);exitX=0.5;exitY=0;exitDx=0;exitDy=0;" parent="CkMFdOmKAKPlQsbWJ-E4-260" target="CkMFdOmKAKPlQsbWJ-E4-255" edge="1">
          <mxGeometry width="50" height="50" relative="1" as="geometry">
            <mxPoint x="149" y="1200" as="sourcePoint" />
            <mxPoint x="54" y="1140" as="targetPoint" />
            <Array as="points">
              <mxPoint x="55" y="1200" />
            </Array>
          </mxGeometry>
        </mxCell>
        <mxCell id="CkMFdOmKAKPlQsbWJ-E4-255" value="" style="rounded=0;whiteSpace=wrap;html=1;direction=west;rotation=-180;" parent="CkMFdOmKAKPlQsbWJ-E4-260" vertex="1">
          <mxGeometry y="1030" width="110" height="40" as="geometry" />
        </mxCell>
        <mxCell id="CkMFdOmKAKPlQsbWJ-E4-256" value="" style="endArrow=none;html=1;rounded=0;strokeColor=light-dark(#FF0000,#FFFFFF);exitX=0.5;exitY=1;exitDx=0;exitDy=0;" parent="CkMFdOmKAKPlQsbWJ-E4-260" edge="1">
          <mxGeometry width="50" height="50" relative="1" as="geometry">
            <mxPoint x="150" y="855" as="sourcePoint" />
            <mxPoint x="55" y="1030" as="targetPoint" />
            <Array as="points">
              <mxPoint x="55" y="855" />
            </Array>
          </mxGeometry>
        </mxCell>
        <mxCell id="CkMFdOmKAKPlQsbWJ-E4-257" value="" style="endArrow=none;html=1;rounded=0;entryX=0.5;entryY=0;entryDx=0;entryDy=0;strokeColor=light-dark(#FF0000,#FFFFFF);exitX=0.5;exitY=0;exitDx=0;exitDy=0;" parent="CkMFdOmKAKPlQsbWJ-E4-260" target="CkMFdOmKAKPlQsbWJ-E4-258" edge="1">
          <mxGeometry width="50" height="50" relative="1" as="geometry">
            <mxPoint x="150" y="500" as="sourcePoint" />
            <mxPoint x="55" y="441" as="targetPoint" />
            <Array as="points">
              <mxPoint x="55" y="500" />
            </Array>
          </mxGeometry>
        </mxCell>
        <mxCell id="CkMFdOmKAKPlQsbWJ-E4-258" value="" style="rounded=0;whiteSpace=wrap;html=1;direction=west;rotation=-180;" parent="CkMFdOmKAKPlQsbWJ-E4-260" vertex="1">
          <mxGeometry y="330" width="110" height="40" as="geometry" />
        </mxCell>
        <mxCell id="CkMFdOmKAKPlQsbWJ-E4-259" value="" style="endArrow=none;html=1;rounded=0;strokeColor=light-dark(#FF0000,#FFFFFF);entryX=0.5;entryY=0;entryDx=0;entryDy=0;exitX=0.5;exitY=1;exitDx=0;exitDy=0;" parent="CkMFdOmKAKPlQsbWJ-E4-260" target="CkMFdOmKAKPlQsbWJ-E4-258" edge="1">
          <mxGeometry width="50" height="50" relative="1" as="geometry">
            <mxPoint x="150" y="155" as="sourcePoint" />
            <mxPoint x="55" y="224" as="targetPoint" />
            <Array as="points">
              <mxPoint x="55" y="155" />
            </Array>
          </mxGeometry>
        </mxCell>
      </root>
    </mxGraphModel>
  </diagram>
</mxfile>
